<svg id="visual" viewBox="0 0 1600 700" width="1600" height="700" xmlns="http://www.w3.org/2000/svg" xmlns:xlink="http://www.w3.org/1999/xlink" version="1.1"><rect x="0" y="0" width="1600" height="700" fill="#e63946"></rect><path d="M0 172L38.2 172C76.3 172 152.7 172 228.8 173.3C305 174.7 381 177.3 457.2 170C533.3 162.7 609.7 145.3 685.8 155C762 164.7 838 201.3 914.2 212.3C990.3 223.3 1066.7 208.7 1142.8 213.5C1219 218.3 1295 242.7 1371.2 230.8C1447.3 219 1523.7 171 1561.8 147L1600 123L1600 701L1561.8 701C1523.7 701 1447.3 701 1371.2 701C1295 701 1219 701 1142.8 701C1066.7 701 990.3 701 914.2 701C838 701 762 701 685.8 701C609.7 701 533.3 701 457.2 701C381 701 305 701 228.8 701C152.7 701 76.3 701 38.2 701L0 701Z" fill="#e63946"></path><path d="M0 305L38.2 290.7C76.3 276.3 152.7 247.7 228.8 232.8C305 218 381 217 457.2 229.7C533.3 242.3 609.7 268.7 685.8 276C762 283.3 838 271.7 914.2 262.5C990.3 253.3 1066.7 246.7 1142.8 245.3C1219 244 1295 248 1371.2 247.2C1447.3 246.3 1523.7 240.7 1561.8 237.8L1600 235L1600 701L1561.8 701C1523.7 701 1447.3 701 1371.2 701C1295 701 1219 701 1142.8 701C1066.7 701 990.3 701 914.2 701C838 701 762 701 685.8 701C609.7 701 533.3 701 457.2 701C381 701 305 701 228.8 701C152.7 701 76.3 701 38.2 701L0 701Z" fill="#e9444b"></path><path d="M0 339L38.2 332.3C76.3 325.7 152.7 312.3 228.8 311.2C305 310 381 321 457.2 322.2C533.3 323.3 609.7 314.7 685.8 324.8C762 335 838 364 914.2 371.2C990.3 378.3 1066.7 363.7 1142.8 345.3C1219 327 1295 305 1371.2 304.3C1447.3 303.7 1523.7 324.3 1561.8 334.7L1600 345L1600 701L1561.8 701C1523.7 701 1447.3 701 1371.2 701C1295 701 1219 701 1142.8 701C1066.7 701 990.3 701 914.2 701C838 701 762 701 685.8 701C609.7 701 533.3 701 457.2 701C381 701 305 701 228.8 701C152.7 701 76.3 701 38.2 701L0 701Z" fill="#ed4f50"></path><path d="M0 355L38.2 356.5C76.3 358 152.7 361 228.8 361.8C305 362.7 381 361.3 457.2 374.5C533.3 387.7 609.7 415.3 685.8 428.5C762 441.7 838 440.3 914.2 436.8C990.3 433.3 1066.7 427.7 1142.8 416.8C1219 406 1295 390 1371.2 392C1447.3 394 1523.7 414 1561.8 424L1600 434L1600 701L1561.8 701C1523.7 701 1447.3 701 1371.2 701C1295 701 1219 701 1142.8 701C1066.7 701 990.3 701 914.2 701C838 701 762 701 685.8 701C609.7 701 533.3 701 457.2 701C381 701 305 701 228.8 701C152.7 701 76.3 701 38.2 701L0 701Z" fill="#f05856"></path><path d="M0 430L38.2 445C76.3 460 152.7 490 228.8 501.8C305 513.7 381 507.3 457.2 498.8C533.3 490.3 609.7 479.7 685.8 481.5C762 483.3 838 497.7 914.2 494C990.3 490.3 1066.7 468.7 1142.8 469.8C1219 471 1295 495 1371.2 504.7C1447.3 514.3 1523.7 509.7 1561.8 507.3L1600 505L1600 701L1561.8 701C1523.7 701 1447.3 701 1371.2 701C1295 701 1219 701 1142.8 701C1066.7 701 990.3 701 914.2 701C838 701 762 701 685.8 701C609.7 701 533.3 701 457.2 701C381 701 305 701 228.8 701C152.7 701 76.3 701 38.2 701L0 701Z" fill="#f3615c"></path><path d="M0 582L38.2 577C76.3 572 152.7 562 228.8 549.3C305 536.7 381 521.3 457.2 522.3C533.3 523.3 609.7 540.7 685.8 548.5C762 556.3 838 554.7 914.2 557.8C990.3 561 1066.7 569 1142.8 566.2C1219 563.3 1295 549.7 1371.2 540C1447.3 530.3 1523.7 524.7 1561.8 521.8L1600 519L1600 701L1561.8 701C1523.7 701 1447.3 701 1371.2 701C1295 701 1219 701 1142.8 701C1066.7 701 990.3 701 914.2 701C838 701 762 701 685.8 701C609.7 701 533.3 701 457.2 701C381 701 305 701 228.8 701C152.7 701 76.3 701 38.2 701L0 701Z" fill="#f76a62"></path><path d="M0 627L38.2 626.3C76.3 625.7 152.7 624.3 228.8 627C305 629.7 381 636.3 457.2 631.3C533.3 626.3 609.7 609.7 685.8 606C762 602.3 838 611.7 914.2 609C990.3 606.3 1066.7 591.7 1142.8 590.3C1219 589 1295 601 1371.2 608.8C1447.3 616.7 1523.7 620.3 1561.8 622.2L1600 624L1600 701L1561.8 701C1523.7 701 1447.3 701 1371.2 701C1295 701 1219 701 1142.8 701C1066.7 701 990.3 701 914.2 701C838 701 762 701 685.8 701C609.7 701 533.3 701 457.2 701C381 701 305 701 228.8 701C152.7 701 76.3 701 38.2 701L0 701Z" fill="#fa7268"></path></svg>