<svg id="visual" viewBox="0 0 900 600" width="900" height="600" xmlns="http://www.w3.org/2000/svg" xmlns:xlink="http://www.w3.org/1999/xlink" version="1.1"><rect x="0" y="0" width="900" height="600" fill="#1d3557"></rect><path d="M0 418L21.5 418C43 418 86 418 128.8 418.5C171.7 419 214.3 420 257.2 417.5C300 415 343 409 385.8 412.3C428.7 415.7 471.3 428.3 514.2 432.2C557 436 600 431 642.8 432.7C685.7 434.3 728.3 442.7 771.2 438.5C814 434.3 857 417.7 878.5 409.3L900 401L900 601L878.5 601C857 601 814 601 771.2 601C728.3 601 685.7 601 642.8 601C600 601 557 601 514.2 601C471.3 601 428.7 601 385.8 601C343 601 300 601 257.2 601C214.3 601 171.7 601 128.8 601C86 601 43 601 21.5 601L0 601Z" fill="#e63946"></path><path d="M0 464L21.5 459C43 454 86 444 128.8 438.8C171.7 433.7 214.3 433.3 257.2 437.7C300 442 343 451 385.8 453.5C428.7 456 471.3 452 514.2 448.8C557 445.7 600 443.3 642.8 443C685.7 442.7 728.3 444.3 771.2 444.2C814 444 857 442 878.5 441L900 440L900 601L878.5 601C857 601 814 601 771.2 601C728.3 601 685.7 601 642.8 601C600 601 557 601 514.2 601C471.3 601 428.7 601 385.8 601C343 601 300 601 257.2 601C214.3 601 171.7 601 128.8 601C86 601 43 601 21.5 601L0 601Z" fill="#e9444b"></path><path d="M0 476L21.5 473.7C43 471.3 86 466.7 128.8 466.2C171.7 465.7 214.3 469.3 257.2 469.7C300 470 343 467 385.8 470.5C428.7 474 471.3 484 514.2 486.5C557 489 600 484 642.8 477.7C685.7 471.3 728.3 463.7 771.2 463.3C814 463 857 470 878.5 473.5L900 477L900 601L878.5 601C857 601 814 601 771.2 601C728.3 601 685.7 601 642.8 601C600 601 557 601 514.2 601C471.3 601 428.7 601 385.8 601C343 601 300 601 257.2 601C214.3 601 171.7 601 128.8 601C86 601 43 601 21.5 601L0 601Z" fill="#ed4f50"></path><path d="M0 481L21.5 481.5C43 482 86 483 128.8 483.3C171.7 483.7 214.3 483.3 257.2 487.8C300 492.3 343 501.7 385.8 506.2C428.7 510.7 471.3 510.3 514.2 509.2C557 508 600 506 642.8 502.3C685.7 498.7 728.3 493.3 771.2 494C814 494.7 857 501.3 878.5 504.7L900 508L900 601L878.5 601C857 601 814 601 771.2 601C728.3 601 685.7 601 642.8 601C600 601 557 601 514.2 601C471.3 601 428.7 601 385.8 601C343 601 300 601 257.2 601C214.3 601 171.7 601 128.8 601C86 601 43 601 21.5 601L0 601Z" fill="#f05856"></path><path d="M0 507L21.5 512.2C43 517.3 86 527.7 128.8 531.7C171.7 535.7 214.3 533.3 257.2 530.3C300 527.3 343 523.7 385.8 524.3C428.7 525 471.3 530 514.2 528.7C557 527.3 600 519.7 642.8 520C685.7 520.3 728.3 528.7 771.2 532C814 535.3 857 533.7 878.5 532.8L900 532L900 601L878.5 601C857 601 814 601 771.2 601C728.3 601 685.7 601 642.8 601C600 601 557 601 514.2 601C471.3 601 428.7 601 385.8 601C343 601 300 601 257.2 601C214.3 601 171.7 601 128.8 601C86 601 43 601 21.5 601L0 601Z" fill="#f3615c"></path><path d="M0 559L21.5 557.3C43 555.7 86 552.3 128.8 548C171.7 543.7 214.3 538.3 257.2 538.7C300 539 343 545 385.8 547.7C428.7 550.3 471.3 549.7 514.2 550.7C557 551.7 600 554.3 642.8 553.3C685.7 552.3 728.3 547.7 771.2 544.3C814 541 857 539 878.5 538L900 537L900 601L878.5 601C857 601 814 601 771.2 601C728.3 601 685.7 601 642.8 601C600 601 557 601 514.2 601C471.3 601 428.7 601 385.8 601C343 601 300 601 257.2 601C214.3 601 171.7 601 128.8 601C86 601 43 601 21.5 601L0 601Z" fill="#f76a62"></path><path d="M0 574L21.5 573.8C43 573.7 86 573.3 128.8 574.3C171.7 575.3 214.3 577.7 257.2 576C300 574.3 343 568.7 385.8 567.3C428.7 566 471.3 569 514.2 568C557 567 600 562 642.8 561.5C685.7 561 728.3 565 771.2 567.7C814 570.3 857 571.7 878.5 572.3L900 573L900 601L878.5 601C857 601 814 601 771.2 601C728.3 601 685.7 601 642.8 601C600 601 557 601 514.2 601C471.3 601 428.7 601 385.8 601C343 601 300 601 257.2 601C214.3 601 171.7 601 128.8 601C86 601 43 601 21.5 601L0 601Z" fill="#fa7268"></path></svg>