<svg id="visual" viewBox="0 0 1260 700" width="1260" height="700" xmlns="http://www.w3.org/2000/svg" xmlns:xlink="http://www.w3.org/1999/xlink" version="1.1"><rect x="0" y="0" width="1260" height="700" fill="#fff1d3"></rect><path d="M0 436L30 435.8C60 435.7 120 435.3 180 435.8C240 436.3 300 437.7 360 434.2C420 430.7 480 422.3 540 427.3C600 432.3 660 450.7 720 456.2C780 461.7 840 454.3 900 456.7C960 459 1020 471 1080 465C1140 459 1200 435 1230 423L1260 411L1260 701L1230 701C1200 701 1140 701 1080 701C1020 701 960 701 900 701C840 701 780 701 720 701C660 701 600 701 540 701C480 701 420 701 360 701C300 701 240 701 180 701C120 701 60 701 30 701L0 701Z" fill="#e63946"></path><path d="M0 502L30 494.8C60 487.7 120 473.3 180 466C240 458.7 300 458.3 360 464.7C420 471 480 484 540 487.5C600 491 660 485 720 480.3C780 475.7 840 472.3 900 471.7C960 471 1020 473 1080 472.7C1140 472.3 1200 469.7 1230 468.3L1260 467L1260 701L1230 701C1200 701 1140 701 1080 701C1020 701 960 701 900 701C840 701 780 701 720 701C660 701 600 701 540 701C480 701 420 701 360 701C300 701 240 701 180 701C120 701 60 701 30 701L0 701Z" fill="#e9444b"></path><path d="M0 519L30 515.7C60 512.3 120 505.7 180 505C240 504.3 300 509.7 360 510.3C420 511 480 507 540 512.2C600 517.3 660 531.7 720 535.2C780 538.7 840 531.3 900 522.2C960 513 1020 502 1080 501.7C1140 501.3 1200 511.7 1230 516.8L1260 522L1260 701L1230 701C1200 701 1140 701 1080 701C1020 701 960 701 900 701C840 701 780 701 720 701C660 701 600 701 540 701C480 701 420 701 360 701C300 701 240 701 180 701C120 701 60 701 30 701L0 701Z" fill="#ed4f50"></path><path d="M0 527L30 527.7C60 528.3 120 529.7 180 530.2C240 530.7 300 530.3 360 537C420 543.7 480 557.3 540 563.8C600 570.3 660 569.7 720 568C780 566.3 840 563.7 900 558.3C960 553 1020 545 1080 545.8C1140 546.7 1200 556.3 1230 561.2L1260 566L1260 701L1230 701C1200 701 1140 701 1080 701C1020 701 960 701 900 701C840 701 780 701 720 701C660 701 600 701 540 701C480 701 420 701 360 701C300 701 240 701 180 701C120 701 60 701 30 701L0 701Z" fill="#f05856"></path><path d="M0 565L30 572.5C60 580 120 595 180 600.8C240 606.7 300 603.3 360 599C420 594.7 480 589.3 540 590.3C600 591.3 660 598.7 720 596.8C780 595 840 584 900 584.5C960 585 1020 597 1080 601.8C1140 606.7 1200 604.3 1230 603.2L1260 602L1260 701L1230 701C1200 701 1140 701 1080 701C1020 701 960 701 900 701C840 701 780 701 720 701C660 701 600 701 540 701C480 701 420 701 360 701C300 701 240 701 180 701C120 701 60 701 30 701L0 701Z" fill="#f3615c"></path><path d="M0 640L30 637.7C60 635.3 120 630.7 180 624.5C240 618.3 300 610.7 360 611C420 611.3 480 619.7 540 623.5C600 627.3 660 626.7 720 628.3C780 630 840 634 900 632.5C960 631 1020 624 1080 619.2C1140 614.3 1200 611.7 1230 610.3L1260 609L1260 701L1230 701C1200 701 1140 701 1080 701C1020 701 960 701 900 701C840 701 780 701 720 701C660 701 600 701 540 701C480 701 420 701 360 701C300 701 240 701 180 701C120 701 60 701 30 701L0 701Z" fill="#f76a62"></path><path d="M0 663L30 662.7C60 662.3 120 661.7 180 663C240 664.3 300 667.7 360 665.2C420 662.7 480 654.3 540 652.5C600 650.7 660 655.3 720 654C780 652.7 840 645.3 900 644.7C960 644 1020 650 1080 654C1140 658 1200 660 1230 661L1260 662L1260 701L1230 701C1200 701 1140 701 1080 701C1020 701 960 701 900 701C840 701 780 701 720 701C660 701 600 701 540 701C480 701 420 701 360 701C300 701 240 701 180 701C120 701 60 701 30 701L0 701Z" fill="#fa7268"></path></svg>