<svg id="visual" viewBox="0 0 900 600" width="900" height="600" xmlns="http://www.w3.org/2000/svg" xmlns:xlink="http://www.w3.org/1999/xlink" version="1.1"><rect x="0" y="0" width="900" height="600" fill="#fff"></rect><path d="M0 373L21.5 373C43 373 86 373 128.8 373.5C171.7 374 214.3 375 257.2 371.8C300 368.7 343 361.3 385.8 365.7C428.7 370 471.3 386 514.2 390.8C557 395.7 600 389.3 642.8 391.3C685.7 393.3 728.3 403.7 771.2 398.5C814 393.3 857 372.7 878.5 362.3L900 352L900 601L878.5 601C857 601 814 601 771.2 601C728.3 601 685.7 601 642.8 601C600 601 557 601 514.2 601C471.3 601 428.7 601 385.8 601C343 601 300 601 257.2 601C214.3 601 171.7 601 128.8 601C86 601 43 601 21.5 601L0 601Z" fill="#e63946"></path><path d="M0 430L21.5 423.8C43 417.7 86 405.3 128.8 399C171.7 392.7 214.3 392.3 257.2 397.8C300 403.3 343 414.7 385.8 417.8C428.7 421 471.3 416 514.2 412C557 408 600 405 642.8 404.3C685.7 403.7 728.3 405.3 771.2 405C814 404.7 857 402.3 878.5 401.2L900 400L900 601L878.5 601C857 601 814 601 771.2 601C728.3 601 685.7 601 642.8 601C600 601 557 601 514.2 601C471.3 601 428.7 601 385.8 601C343 601 300 601 257.2 601C214.3 601 171.7 601 128.8 601C86 601 43 601 21.5 601L0 601Z" fill="#e9444b"></path><path d="M0 445L21.5 442.2C43 439.3 86 433.7 128.8 433.2C171.7 432.7 214.3 437.3 257.2 437.8C300 438.3 343 434.7 385.8 439C428.7 443.3 471.3 455.7 514.2 458.7C557 461.7 600 455.3 642.8 447.5C685.7 439.7 728.3 430.3 771.2 430C814 429.7 857 438.3 878.5 442.7L900 447L900 601L878.5 601C857 601 814 601 771.2 601C728.3 601 685.7 601 642.8 601C600 601 557 601 514.2 601C471.3 601 428.7 601 385.8 601C343 601 300 601 257.2 601C214.3 601 171.7 601 128.8 601C86 601 43 601 21.5 601L0 601Z" fill="#ed4f50"></path><path d="M0 452L21.5 452.5C43 453 86 454 128.8 454.3C171.7 454.7 214.3 454.3 257.2 460C300 465.7 343 477.3 385.8 483C428.7 488.7 471.3 488.3 514.2 486.8C557 485.3 600 482.7 642.8 478C685.7 473.3 728.3 466.7 771.2 467.5C814 468.3 857 476.7 878.5 480.8L900 485L900 601L878.5 601C857 601 814 601 771.2 601C728.3 601 685.7 601 642.8 601C600 601 557 601 514.2 601C471.3 601 428.7 601 385.8 601C343 601 300 601 257.2 601C214.3 601 171.7 601 128.8 601C86 601 43 601 21.5 601L0 601Z" fill="#f05856"></path><path d="M0 484L21.5 490.3C43 496.7 86 509.3 128.8 514.3C171.7 519.3 214.3 516.7 257.2 513C300 509.3 343 504.7 385.8 505.5C428.7 506.3 471.3 512.7 514.2 511.2C557 509.7 600 500.3 642.8 500.8C685.7 501.3 728.3 511.7 771.2 515.8C814 520 857 518 878.5 517L900 516L900 601L878.5 601C857 601 814 601 771.2 601C728.3 601 685.7 601 642.8 601C600 601 557 601 514.2 601C471.3 601 428.7 601 385.8 601C343 601 300 601 257.2 601C214.3 601 171.7 601 128.8 601C86 601 43 601 21.5 601L0 601Z" fill="#f3615c"></path><path d="M0 549L21.5 546.8C43 544.7 86 540.3 128.8 534.8C171.7 529.3 214.3 522.7 257.2 523.2C300 523.7 343 531.3 385.8 534.8C428.7 538.3 471.3 537.7 514.2 539C557 540.3 600 543.7 642.8 542.3C685.7 541 728.3 535 771.2 530.8C814 526.7 857 524.3 878.5 523.2L900 522L900 601L878.5 601C857 601 814 601 771.2 601C728.3 601 685.7 601 642.8 601C600 601 557 601 514.2 601C471.3 601 428.7 601 385.8 601C343 601 300 601 257.2 601C214.3 601 171.7 601 128.8 601C86 601 43 601 21.5 601L0 601Z" fill="#f76a62"></path><path d="M0 568L21.5 567.8C43 567.7 86 567.3 128.8 568.5C171.7 569.7 214.3 572.3 257.2 570.2C300 568 343 561 385.8 559.5C428.7 558 471.3 562 514.2 560.8C557 559.7 600 553.3 642.8 552.7C685.7 552 728.3 557 771.2 560.3C814 563.7 857 565.3 878.5 566.2L900 567L900 601L878.5 601C857 601 814 601 771.2 601C728.3 601 685.7 601 642.8 601C600 601 557 601 514.2 601C471.3 601 428.7 601 385.8 601C343 601 300 601 257.2 601C214.3 601 171.7 601 128.8 601C86 601 43 601 21.5 601L0 601Z" fill="#fa7268"></path></svg>