<svg id="visual" viewBox="0 0 1600 700" width="1600" height="700" xmlns="http://www.w3.org/2000/svg" xmlns:xlink="http://www.w3.org/1999/xlink" version="1.1"><rect x="0" y="0" width="1600" height="700" fill="#1d3557"></rect><path d="M0 436L38.2 435.8C76.3 435.7 152.7 435.3 228.8 435.8C305 436.3 381 437.7 457.2 434.2C533.3 430.7 609.7 422.3 685.8 427.3C762 432.3 838 450.7 914.2 456.2C990.3 461.7 1066.7 454.3 1142.8 456.7C1219 459 1295 471 1371.2 465C1447.3 459 1523.7 435 1561.8 423L1600 411L1600 701L1561.8 701C1523.7 701 1447.3 701 1371.2 701C1295 701 1219 701 1142.8 701C1066.7 701 990.3 701 914.2 701C838 701 762 701 685.8 701C609.7 701 533.3 701 457.2 701C381 701 305 701 228.8 701C152.7 701 76.3 701 38.2 701L0 701Z" fill="#e63946"></path><path d="M0 502L38.2 494.8C76.3 487.7 152.7 473.3 228.8 466C305 458.7 381 458.3 457.2 464.7C533.3 471 609.7 484 685.8 487.5C762 491 838 485 914.2 480.3C990.3 475.7 1066.7 472.3 1142.8 471.7C1219 471 1295 473 1371.2 472.7C1447.3 472.3 1523.7 469.7 1561.8 468.3L1600 467L1600 701L1561.8 701C1523.7 701 1447.3 701 1371.2 701C1295 701 1219 701 1142.8 701C1066.7 701 990.3 701 914.2 701C838 701 762 701 685.8 701C609.7 701 533.3 701 457.2 701C381 701 305 701 228.8 701C152.7 701 76.3 701 38.2 701L0 701Z" fill="#e9444b"></path><path d="M0 519L38.2 515.7C76.3 512.3 152.7 505.7 228.8 505C305 504.3 381 509.7 457.2 510.3C533.3 511 609.7 507 685.8 512.2C762 517.3 838 531.7 914.2 535.2C990.3 538.7 1066.7 531.3 1142.8 522.2C1219 513 1295 502 1371.2 501.7C1447.3 501.3 1523.7 511.7 1561.8 516.8L1600 522L1600 701L1561.8 701C1523.7 701 1447.3 701 1371.2 701C1295 701 1219 701 1142.8 701C1066.7 701 990.3 701 914.2 701C838 701 762 701 685.8 701C609.7 701 533.3 701 457.2 701C381 701 305 701 228.8 701C152.7 701 76.3 701 38.2 701L0 701Z" fill="#ed4f50"></path><path d="M0 527L38.2 527.7C76.3 528.3 152.7 529.7 228.8 530.2C305 530.7 381 530.3 457.2 537C533.3 543.7 609.7 557.3 685.8 563.8C762 570.3 838 569.7 914.2 568C990.3 566.3 1066.7 563.7 1142.8 558.3C1219 553 1295 545 1371.2 545.8C1447.3 546.7 1523.7 556.3 1561.8 561.2L1600 566L1600 701L1561.8 701C1523.7 701 1447.3 701 1371.2 701C1295 701 1219 701 1142.8 701C1066.7 701 990.3 701 914.2 701C838 701 762 701 685.8 701C609.7 701 533.3 701 457.2 701C381 701 305 701 228.8 701C152.7 701 76.3 701 38.2 701L0 701Z" fill="#f05856"></path><path d="M0 565L38.2 572.5C76.3 580 152.7 595 228.8 600.8C305 606.7 381 603.3 457.2 599C533.3 594.7 609.7 589.3 685.8 590.3C762 591.3 838 598.7 914.2 596.8C990.3 595 1066.7 584 1142.8 584.5C1219 585 1295 597 1371.2 601.8C1447.3 606.7 1523.7 604.3 1561.8 603.2L1600 602L1600 701L1561.8 701C1523.7 701 1447.3 701 1371.2 701C1295 701 1219 701 1142.8 701C1066.7 701 990.3 701 914.2 701C838 701 762 701 685.8 701C609.7 701 533.3 701 457.2 701C381 701 305 701 228.8 701C152.7 701 76.3 701 38.2 701L0 701Z" fill="#f3615c"></path><path d="M0 640L38.2 637.7C76.3 635.3 152.7 630.7 228.8 624.5C305 618.3 381 610.7 457.2 611C533.3 611.3 609.7 619.7 685.8 623.5C762 627.3 838 626.7 914.2 628.3C990.3 630 1066.7 634 1142.8 632.5C1219 631 1295 624 1371.2 619.2C1447.3 614.3 1523.7 611.7 1561.8 610.3L1600 609L1600 701L1561.8 701C1523.7 701 1447.3 701 1371.2 701C1295 701 1219 701 1142.8 701C1066.7 701 990.3 701 914.2 701C838 701 762 701 685.8 701C609.7 701 533.3 701 457.2 701C381 701 305 701 228.8 701C152.7 701 76.3 701 38.2 701L0 701Z" fill="#f76a62"></path><path d="M0 663L38.2 662.7C76.3 662.3 152.7 661.7 228.8 663C305 664.3 381 667.7 457.2 665.2C533.3 662.7 609.7 654.3 685.8 652.5C762 650.7 838 655.3 914.2 654C990.3 652.7 1066.7 645.3 1142.8 644.7C1219 644 1295 650 1371.2 654C1447.3 658 1523.7 660 1561.8 661L1600 662L1600 701L1561.8 701C1523.7 701 1447.3 701 1371.2 701C1295 701 1219 701 1142.8 701C1066.7 701 990.3 701 914.2 701C838 701 762 701 685.8 701C609.7 701 533.3 701 457.2 701C381 701 305 701 228.8 701C152.7 701 76.3 701 38.2 701L0 701Z" fill="#fa7268"></path></svg>