<svg xmlns="http://www.w3.org/2000/svg" version="1.1" xmlns:xlink="http://www.w3.org/1999/xlink" xmlns:svgjs="http://svgjs.com/svgjs" width="2000" height="800" preserveAspectRatio="none" viewBox="0 0 2000 800">
    <g mask="url(&quot;#SvgjsMask1064&quot;)" fill="none">
        <rect width="2000" height="800" x="0" y="0" fill="#1d3557"></rect>
        <path d="M 0,129 C 80,144.2 240,215.4 400,205 C 560,194.6 640,89.4 800,77 C 960,64.6 1040,139.2 1200,143 C 1360,146.8 1440,93.2 1600,96 C 1760,98.8 1920,144.8 2000,157L2000 800L0 800z" fill="#8397a7"></path>
        <path d="M 0,363 C 80,375.4 240,430.6 400,425 C 560,419.4 640,319 800,335 C 960,351 1040,511.4 1200,505 C 1360,498.6 1440,298.2 1600,303 C 1760,307.8 1920,483.8 2000,529L2000 800L0 800z" fill="#184a7e"></path>
        <path d="M 0,705 C 133.4,674.8 400.2,542 667,554 C 933.8,566 1067.4,749.2 1334,765 C 1600.6,780.8 1866.8,659.4 2000,633L2000 800L0 800z" fill="#2264ab"></path>
    </g>
    <defs>
        <mask id="SvgjsMask1064">
            <rect width="2000" height="800" fill="#ffffff"></rect>
        </mask>
    </defs>
</svg>
